Coordinates
version=1
nRows=8
nColumns=63
inDegrees=yes

Units are S.I. units (second, meters, Newtons, ...)
If the header above contains a line with 'inDegrees', this indicates whether rotational values are in degrees (yes) or radians (no).

endheader
time	pelvis_tilt	pelvis_list	pelvis_rotation	pelvis_tx	pelvis_ty	pelvis_tz	hip_flexion_r	hip_adduction_r	hip_rotation_r	knee_angle_r	knee_angle_r_beta	ankle_angle_r	subtalar_angle_r	mtp_angle_r	hip_flexion_l	hip_adduction_l	hip_rotation_l	knee_angle_l	knee_angle_l_beta	ankle_angle_l	subtalar_angle_l	mtp_angle_l	L5_S1_Flex_Ext	L5_S1_Lat_Bending	L5_S1_axial_rotation	L4_L5_Flex_Ext	L4_L5_Lat_Bending	L4_L5_axial_rotation	L3_L4_Flex_Ext	L3_L4_Lat_Bending	L3_L4_axial_rotation	L2_L3_Flex_Ext	L2_L3_Lat_Bending	L2_L3_axial_rotation	L1_L2_Flex_Ext	L1_L2_Lat_Bending	L1_L2_axial_rotation	L1_T12_Flex_Ext	L1_T12_Lat_Bending	L1_T12_axial_rotation	Abs_r3	Abs_r2	Abs_r1	Abs_t1	Abs_t2	neck_flexion	neck_bending	neck_rotation	arm_flex_r	arm_add_r	arm_rot_r	elbow_flex_r	pro_sup_r	wrist_flex_r	wrist_dev_r	arm_flex_l	arm_add_l	arm_rot_l	elbow_flex_l	pro_sup_l	wrist_flex_l	wrist_dev_l
0.000000	-1.690570	-5.151289	69.228943	0.209113	0.875265	0.552937	7.393889	6.373626	12.496643	6.523737	0.113861	31.125953	-8.543095	0.000000	4.452784	-4.924009	17.565232	1.763545	0.030780	31.690414	-15.784029	0.000000	0.686638	0.740618	0.348969	1.275155	0.985021	0.370779	1.128077	1.800738	0.370779	0.784758	1.800738	0.305348	0.637612	1.510267	0.283537	0.392345	1.147217	0.261727	4.904584	8.378014	1.940860	0.000000	0.000000	28.142066	-1.562647	2.329408	23.194562	-5.057392	96.452396	33.663041	36.167670	5.652121	2.011068	19.316045	-1.543329	77.844564	33.820899	49.069447	3.557172	4.387397
0.021277	-1.684050	-4.946798	68.951081	0.209661	0.876086	0.551664	7.161744	6.309386	12.393122	6.167747	0.107647	31.442824	-7.887046	0.000000	4.089944	-4.924308	17.866536	1.562281	0.027267	31.368004	-16.188317	0.000000	0.673646	0.739835	0.359611	1.251029	0.983980	0.382086	1.106734	1.798834	0.382086	0.769910	1.798834	0.314659	0.625548	1.508671	0.292184	0.384922	1.146004	0.269708	4.811789	8.369158	2.000047	0.000000	0.000000	28.130894	-1.495997	2.503433	22.247125	-5.039840	93.828694	33.141080	41.164014	4.889386	0.967072	19.229752	-1.140700	77.282489	33.181774	49.634719	3.816128	5.271895
0.042553	-1.667584	-4.793894	68.775920	0.210005	0.876676	0.550663	6.991320	6.265919	12.236342	5.910559	0.103159	31.710483	-7.315975	0.000000	3.823980	-4.926291	18.124508	1.424944	0.024870	31.131035	-16.505024	0.000000	0.664182	0.740740	0.361554	1.233453	0.985184	0.384152	1.091185	1.801034	0.384152	0.759094	1.801034	0.316360	0.616760	1.510516	0.293763	0.379514	1.147405	0.271166	4.744187	8.379393	2.010858	0.000000	0.000000	28.123717	-1.447845	2.645706	21.552911	-5.034866	91.818226	32.764687	46.007854	4.390651	0.023536	19.157740	-0.824607	76.800977	32.692160	50.253784	4.051962	5.871574
0.063830	-1.641681	-4.687999	68.692627	0.210166	0.877059	0.549910	6.877148	6.241821	12.033117	5.742288	0.100222	31.932910	-6.822112	0.000000	3.646123	-4.930548	18.338100	1.346169	0.023495	30.973144	-16.736973	0.000000	0.657884	0.743225	0.355705	1.221756	0.988489	0.377936	1.080837	1.807077	0.377936	0.751895	1.807077	0.311242	0.610911	1.515584	0.289010	0.375915	1.151255	0.266778	4.699198	8.407507	1.978322	0.000000	0.000000	28.120116	-1.416711	2.758312	21.084744	-5.041703	90.353696	32.519723	50.668510	4.130264	-0.818226	19.099200	-0.586816	76.395718	32.337204	50.910994	4.265324	6.218912
0.085106	-1.606849	-4.624536	68.690368	0.210165	0.877259	0.549384	6.813756	6.235687	11.790259	5.653049	0.098664	32.114081	-6.397687	0.000000	3.547606	-4.937674	18.506266	1.320591	0.023049	30.887966	-16.886987	0.000000	0.654390	0.747183	0.342966	1.215267	0.993753	0.364401	1.075097	1.816700	0.364401	0.747902	1.816700	0.300095	0.607666	1.523655	0.278660	0.373918	1.157386	0.257224	4.674241	8.452282	1.907474	0.000000	0.000000	28.119671	-1.401120	2.843339	20.815450	-5.059589	89.367807	32.392050	55.115306	4.082571	-1.556905	19.053320	-0.419091	76.062402	32.102054	51.590702	4.456861	6.346387
0.106383	-1.563598	-4.598926	68.758312	0.210022	0.877299	0.549062	6.795674	6.246111	11.514583	5.632958	0.098314	32.257976	-6.034927	0.000000	3.519661	-4.948260	18.627959	1.342844	0.023437	30.869138	-16.957889	0.000000	0.653339	0.752507	0.324243	1.213316	1.000834	0.344508	1.073371	1.829645	0.344508	0.746701	1.829645	0.283713	0.606691	1.534512	0.263448	0.373318	1.165633	0.243182	4.666735	8.512506	1.803343	0.000000	0.000000	28.121962	-1.399591	2.902873	20.717855	-5.087758	88.793262	32.367527	59.317565	4.221920	-2.191187	19.019289	-0.313199	75.796718	31.971857	52.277260	4.627219	6.286478
0.127660	-1.512435	-4.606592	68.885624	0.209759	0.877205	0.548921	6.817430	6.271688	11.212900	5.672130	0.098997	32.368573	-5.726062	0.000000	3.553521	-4.962900	18.702132	1.407562	0.024567	30.910295	-16.952504	0.000000	0.654370	0.759089	0.300441	1.215231	1.009588	0.319218	1.075065	1.845648	0.319218	0.747880	1.845648	0.262886	0.607648	1.547934	0.244108	0.373907	1.175828	0.225331	4.674101	8.586962	1.670962	0.000000	0.000000	28.126572	-1.410648	2.939003	20.764783	-5.125446	88.562765	32.432016	63.244609	4.522658	-2.719763	18.996296	-0.260904	75.594357	31.931762	52.955019	4.777047	6.071664
0.148936	-1.453871	-4.642957	69.061474	0.209397	0.876999	0.548939	6.873553	6.311013	10.892025	5.760682	0.100543	32.449848	-5.463322	0.000000	3.640418	-4.982186	18.727738	1.509379	0.026344	31.005073	-16.873653	0.000000	0.657122	0.766821	0.272464	1.220341	1.019873	0.289493	1.079586	1.864450	0.289493	0.751025	1.864450	0.238406	0.610203	1.563702	0.221377	0.375480	1.187806	0.204348	4.693757	8.674437	1.515362	0.000000	0.000000	28.133079	-1.432813	2.953813	20.929062	-5.171889	88.609019	32.571377	66.865761	4.959134	-3.141320	18.983531	-0.253972	75.451006	31.966916	53.608332	4.906992	5.734424
